<svg width="15" height="14" viewBox="0 0 15 14" fill="none" xmlns="http://www.w3.org/2000/svg">
  <path
    d="M0.625887 -0.000244141C4.92158 0.650635 7.55794 1.37852 9.0632 2.14432C9.81215 2.52537 10.375 2.96164 10.6825 3.48987C11.0217 4.0725 10.9972 4.67434 10.7525 5.19133C10.5295 5.66219 10.1373 6.0411 9.75879 6.33104C9.3692 6.62939 8.92726 6.88355 8.52579 7.08645C8.4739 7.11268 8.42164 7.13668 8.37065 7.16149C8.42914 7.29073 8.49149 7.42798 8.56128 7.56606C8.73956 7.91877 8.94391 8.26812 9.16257 8.55368C9.38958 8.8501 9.58697 9.01804 9.73243 9.08703C9.83175 9.13408 9.88748 9.13397 9.98389 9.0779C10.135 8.98997 10.4006 8.73719 10.7251 8.09942C11.3707 6.83046 12.0706 4.40456 12.7176 0.134615L14.2578 0.36783C13.6069 4.66367 12.8791 7.29991 12.1132 8.80514C11.7322 9.55412 11.296 10.117 10.7677 10.4245C10.185 10.7635 9.58324 10.7393 9.06624 10.4944C8.59528 10.2714 8.21649 9.87935 7.92653 9.50073C7.62818 9.11114 7.37402 8.6692 7.17112 8.26774C7.11247 8.15168 7.05726 8.03751 7.00584 7.92704C6.77059 8.02243 6.47721 8.14966 6.17336 8.30322C5.82068 8.48147 5.47133 8.68589 5.18575 8.90451C4.88946 9.13141 4.72145 9.32893 4.65239 9.47437C4.60538 9.57363 4.60456 9.62955 4.66051 9.72584C4.74846 9.87693 5.00192 10.1424 5.64001 10.4671C6.90898 11.1127 9.33479 11.8125 13.6048 12.4595L13.4872 13.2301L13.3706 13.9998C9.07499 13.3489 6.43845 12.621 4.93327 11.8552C4.18448 11.4742 3.62241 11.0378 3.31496 10.5096C2.97573 9.92685 3.00008 9.32527 3.24499 8.80819C3.46809 8.33725 3.86008 7.95842 4.23869 7.66847C4.62823 7.37019 5.06928 7.11593 5.47068 6.91306C5.74895 6.77242 6.01733 6.65357 6.2484 6.55614C6.16558 6.36168 6.06831 6.14083 5.95434 5.91531C5.77608 5.56257 5.5717 5.21329 5.35305 4.92769C5.12602 4.6312 4.92865 4.46332 4.7832 4.39434C4.68387 4.34729 4.62813 4.34638 4.53173 4.40245C4.38066 4.49038 4.11516 4.74386 3.79051 5.38195C3.14493 6.65093 2.44501 9.07687 1.79805 13.3468L1.02844 13.2291L0.257812 13.1125C0.908701 8.81689 1.63659 6.18038 2.40238 4.67521C2.78335 3.92648 3.21983 3.36439 3.74793 3.0569C4.33065 2.7177 4.93236 2.74209 5.44938 2.98694C5.92034 3.21004 6.29915 3.60199 6.58909 3.98063C6.88736 4.37015 7.14164 4.81121 7.34451 5.21262C7.44668 5.4148 7.53851 5.6116 7.61828 5.79261C7.68521 5.76068 7.75557 5.73093 7.82412 5.69629C8.17684 5.518 8.52619 5.31367 8.81173 5.095C9.10832 4.86786 9.27618 4.67062 9.34509 4.52514C9.39212 4.4258 9.39215 4.3702 9.33596 4.27367C9.24796 4.12258 8.99522 3.85697 8.35747 3.53246C7.08851 2.88683 4.66266 2.18698 0.392672 1.53999L0.625887 -0.000244141Z"
    fill="white" />
</svg>