<svg width="65" height="13" viewBox="0 0 65 13" fill="none" xmlns="http://www.w3.org/2000/svg">
  <path
    d="M4.49565 9.18399C3.98898 9.18399 3.50365 9.12532 3.03965 9.00799C2.58098 8.89599 2.17032 8.72799 1.80765 8.50399C1.44498 8.27466 1.15965 7.99199 0.951648 7.65599C0.743648 7.31999 0.639648 6.92799 0.639648 6.47999C0.639648 6.45332 0.639648 6.42399 0.639648 6.39199C0.639648 6.35999 0.639648 6.33332 0.639648 6.31199H2.87965C2.87965 6.33332 2.87965 6.35466 2.87965 6.37599C2.87965 6.39199 2.87965 6.41332 2.87965 6.43999C2.87965 6.77599 3.02898 7.02399 3.32765 7.18399C3.63165 7.34399 4.04232 7.42399 4.55965 7.42399C4.83698 7.42399 5.09832 7.39466 5.34365 7.33599C5.59432 7.27732 5.79698 7.18666 5.95165 7.06399C6.11165 6.93599 6.19165 6.77332 6.19165 6.57599C6.19165 6.26132 6.02632 6.03732 5.69565 5.90399C5.36498 5.77066 4.83965 5.64532 4.11965 5.52799C3.71965 5.46399 3.32232 5.37332 2.92765 5.25599C2.53298 5.13866 2.17032 4.98132 1.83965 4.78399C1.51432 4.58666 1.25032 4.34132 1.04765 4.04799C0.850315 3.74932 0.751648 3.38666 0.751648 2.95999C0.751648 2.39466 0.922315 1.91999 1.26365 1.53599C1.60498 1.14666 2.06098 0.853323 2.63165 0.65599C3.20232 0.453323 3.82898 0.35199 4.51165 0.35199C5.16765 0.35199 5.77832 0.461323 6.34365 0.67999C6.91432 0.893324 7.37298 1.20266 7.71965 1.60799C8.07165 2.01332 8.24765 2.50399 8.24765 3.07999C8.24765 3.09599 8.24765 3.11466 8.24765 3.13599C8.24765 3.15732 8.24765 3.17866 8.24765 3.19999H6.02365C6.02365 3.17866 6.02365 3.15999 6.02365 3.14399C6.02365 3.12799 6.02365 3.11199 6.02365 3.09599C6.02365 2.86666 5.94898 2.67999 5.79965 2.53599C5.65565 2.38666 5.46632 2.27732 5.23165 2.20799C5.00232 2.13332 4.76232 2.09599 4.51165 2.09599C4.28765 2.09599 4.05565 2.11999 3.81565 2.16799C3.57565 2.21599 3.37298 2.29866 3.20765 2.41599C3.04765 2.53332 2.96765 2.69599 2.96765 2.90399C2.96765 3.10666 3.05032 3.27199 3.21565 3.39999C3.38632 3.52266 3.62365 3.62666 3.92765 3.71199C4.23165 3.79199 4.58365 3.86399 4.98365 3.92799C5.36232 3.99199 5.74898 4.07999 6.14365 4.19199C6.54365 4.29866 6.91165 4.44532 7.24765 4.63199C7.58365 4.81866 7.85565 5.06399 8.06365 5.36799C8.27698 5.67199 8.38365 6.05066 8.38365 6.50399C8.38365 6.97866 8.27432 7.38399 8.05565 7.71999C7.83698 8.05599 7.54098 8.33332 7.16765 8.55199C6.79965 8.76532 6.38365 8.92266 5.91965 9.02399C5.46098 9.13066 4.98632 9.18399 4.49565 9.18399Z"
    fill="white" style="mix-blend-mode:plus-lighter" />
  <path
    d="M9.76102 12.656C9.50502 12.656 9.27569 12.6453 9.07302 12.624C8.87036 12.6027 8.74502 12.5813 8.69702 12.56V10.824C8.76636 10.856 8.88369 10.88 9.04902 10.896C9.21969 10.9173 9.40102 10.928 9.59302 10.928C9.87036 10.928 10.1157 10.872 10.329 10.76C10.5424 10.648 10.7264 10.4907 10.881 10.288C11.0357 10.0907 11.1584 9.86132 11.249 9.59999L11.417 9.10399L8.48902 0.50399H10.841L12.785 7.54399H12.513L14.401 0.50399H16.721L13.761 9.47999C13.553 10.1253 13.2944 10.6853 12.985 11.16C12.681 11.6347 12.2757 12.0027 11.769 12.264C11.2624 12.5253 10.593 12.656 9.76102 12.656Z"
    fill="white" style="mix-blend-mode:plus-lighter" />
  <path
    d="M23.5244 8.99999V5.29599C23.5244 5.08799 23.5244 4.90132 23.5244 4.73599C23.5244 4.57066 23.5244 4.42132 23.5244 4.28799C23.5244 3.91999 23.4737 3.58666 23.3724 3.28799C23.2711 2.98399 23.0951 2.74399 22.8444 2.56799C22.5937 2.39199 22.2391 2.30399 21.7804 2.30399C21.3857 2.30399 21.0364 2.39732 20.7324 2.58399C20.4337 2.77066 20.1991 3.02932 20.0284 3.35999C19.8631 3.69066 19.7804 4.06932 19.7804 4.49599L19.0844 4.03999C19.0844 3.31999 19.2444 2.68266 19.5644 2.12799C19.8844 1.57332 20.3164 1.13866 20.8604 0.82399C21.4097 0.509323 22.0151 0.35199 22.6764 0.35199C23.3644 0.35199 23.9377 0.48799 24.3964 0.75999C24.8604 1.03199 25.2071 1.41599 25.4364 1.91199C25.6657 2.40266 25.7804 2.98132 25.7804 3.64799C25.7804 3.90932 25.7804 4.20266 25.7804 4.52799C25.7804 4.85332 25.7804 5.18132 25.7804 5.51199V8.99999H23.5244ZM17.5324 8.99999V0.50399H19.7804V8.99999H17.5324Z"
    fill="white" style="mix-blend-mode:plus-lighter" />
  <path
    d="M30.1671 9.17599C29.5378 9.17599 28.9831 9.07732 28.5031 8.87999C28.0231 8.67732 27.6471 8.38932 27.3751 8.01599C27.1031 7.63732 26.9671 7.18132 26.9671 6.64799C26.9671 6.06132 27.1271 5.57866 27.4471 5.19999C27.7725 4.82132 28.2045 4.53066 28.7431 4.32799C29.2871 4.12532 29.8845 3.99466 30.5351 3.93599C31.4898 3.83999 32.1538 3.75199 32.5271 3.67199C32.9005 3.58666 33.0871 3.44799 33.0871 3.25599C33.0871 3.25066 33.0871 3.24799 33.0871 3.24799C33.0871 3.24266 33.0871 3.23999 33.0871 3.23999C33.0871 2.88799 32.9245 2.61599 32.5991 2.42399C32.2791 2.22666 31.8285 2.12799 31.2471 2.12799C30.6338 2.12799 30.1618 2.23732 29.8311 2.45599C29.5058 2.67466 29.3431 3.01599 29.3431 3.47999H27.1191C27.1191 2.80799 27.2978 2.23999 27.6551 1.77599C28.0178 1.31199 28.5111 0.95999 29.1351 0.71999C29.7645 0.474656 30.4738 0.35199 31.2631 0.35199C31.9991 0.35199 32.6765 0.46399 33.2951 0.68799C33.9138 0.906657 34.4098 1.23999 34.7831 1.68799C35.1618 2.13599 35.3511 2.69866 35.3511 3.37599C35.3511 3.48799 35.3511 3.59999 35.3511 3.71199C35.3511 3.81866 35.3511 3.92799 35.3511 4.03999V7.16799C35.3511 7.37599 35.3565 7.57866 35.3671 7.77599C35.3831 7.97332 35.4125 8.15199 35.4551 8.31199C35.5085 8.48799 35.5725 8.63732 35.6471 8.75999C35.7271 8.87732 35.7911 8.95732 35.8391 8.99999H33.6151C33.5778 8.96266 33.5218 8.88799 33.4471 8.77599C33.3778 8.66399 33.3165 8.53332 33.2631 8.38399C33.2098 8.21332 33.1671 8.03466 33.1351 7.84799C33.1085 7.66132 33.0951 7.45066 33.0951 7.21599L33.5511 7.52799C33.3965 7.86399 33.1538 8.15732 32.8231 8.40799C32.4925 8.65332 32.1005 8.84266 31.6471 8.97599C31.1938 9.10932 30.7005 9.17599 30.1671 9.17599ZM30.7431 7.43999C31.1591 7.43999 31.5458 7.36799 31.9031 7.22399C32.2658 7.07466 32.5565 6.84532 32.7751 6.53599C32.9991 6.22666 33.1111 5.82666 33.1111 5.33599V4.31199L33.6711 4.90399C33.3245 5.03199 32.9138 5.13866 32.4391 5.22399C31.9698 5.30399 31.4951 5.36799 31.0151 5.41599C30.4178 5.46932 29.9698 5.57066 29.6711 5.71999C29.3778 5.86932 29.2311 6.11466 29.2311 6.45599C29.2311 6.78132 29.3565 7.02666 29.6071 7.19199C29.8578 7.35732 30.2365 7.43999 30.7431 7.43999Z"
    fill="white" style="mix-blend-mode:plus-lighter" />
  <path
    d="M36.7755 12.496V0.50399H39.0315V12.496H36.7755ZM41.6875 9.18399C41.0209 9.18399 40.4075 9.00799 39.8475 8.65599C39.2875 8.30399 38.8369 7.82666 38.4955 7.22399C38.1542 6.62132 37.9835 5.94399 37.9835 5.19199C37.9835 5.17066 37.9835 5.15199 37.9835 5.13599C37.9835 5.11466 37.9835 5.09332 37.9835 5.07199L39.0315 5.04799C39.0315 5.06399 39.0315 5.07999 39.0315 5.09599C39.0315 5.11199 39.0315 5.12532 39.0315 5.13599C39.0315 5.54666 39.1329 5.90932 39.3355 6.22399C39.5382 6.53332 39.7995 6.77599 40.1195 6.95199C40.4449 7.12266 40.7862 7.20799 41.1435 7.20799C41.7302 7.20799 42.2315 7.00799 42.6475 6.60799C43.0689 6.20266 43.2795 5.57332 43.2795 4.71999C43.2795 3.86666 43.0715 3.24266 42.6555 2.84799C42.2395 2.45332 41.7355 2.25599 41.1435 2.25599C40.7862 2.25599 40.4475 2.34132 40.1275 2.51199C39.8075 2.68266 39.5435 2.91999 39.3355 3.22399C39.1329 3.52799 39.0315 3.88532 39.0315 4.29599L37.9835 4.24799C37.9835 3.48532 38.1542 2.81332 38.4955 2.23199C38.8369 1.64532 39.2875 1.18666 39.8475 0.85599C40.4075 0.51999 41.0209 0.35199 41.6875 0.35199C42.3755 0.35199 43.0155 0.522656 43.6075 0.86399C44.2049 1.19999 44.6875 1.69332 45.0555 2.34399C45.4235 2.99466 45.6075 3.78666 45.6075 4.71999C45.6075 5.69066 45.4262 6.50932 45.0635 7.17599C44.7062 7.83732 44.2315 8.33866 43.6395 8.67999C43.0475 9.01599 42.3969 9.18399 41.6875 9.18399Z"
    fill="white" style="mix-blend-mode:plus-lighter" />
  <path
    d="M50.2675 9.18399C49.7609 9.18399 49.2755 9.12532 48.8115 9.00799C48.3529 8.89599 47.9422 8.72799 47.5795 8.50399C47.2169 8.27466 46.9315 7.99199 46.7235 7.65599C46.5155 7.31999 46.4115 6.92799 46.4115 6.47999C46.4115 6.45332 46.4115 6.42399 46.4115 6.39199C46.4115 6.35999 46.4115 6.33332 46.4115 6.31199H48.6515C48.6515 6.33332 48.6515 6.35466 48.6515 6.37599C48.6515 6.39199 48.6515 6.41332 48.6515 6.43999C48.6515 6.77599 48.8009 7.02399 49.0995 7.18399C49.4035 7.34399 49.8142 7.42399 50.3315 7.42399C50.6089 7.42399 50.8702 7.39466 51.1155 7.33599C51.3662 7.27732 51.5689 7.18666 51.7235 7.06399C51.8835 6.93599 51.9635 6.77332 51.9635 6.57599C51.9635 6.26132 51.7982 6.03732 51.4675 5.90399C51.1369 5.77066 50.6115 5.64532 49.8915 5.52799C49.4915 5.46399 49.0942 5.37332 48.6995 5.25599C48.3049 5.13866 47.9422 4.98132 47.6115 4.78399C47.2862 4.58666 47.0222 4.34132 46.8195 4.04799C46.6222 3.74932 46.5235 3.38666 46.5235 2.95999C46.5235 2.39466 46.6942 1.91999 47.0355 1.53599C47.3769 1.14666 47.8329 0.853323 48.4035 0.65599C48.9742 0.453323 49.6009 0.35199 50.2835 0.35199C50.9395 0.35199 51.5502 0.461323 52.1155 0.67999C52.6862 0.893324 53.1449 1.20266 53.4915 1.60799C53.8435 2.01332 54.0195 2.50399 54.0195 3.07999C54.0195 3.09599 54.0195 3.11466 54.0195 3.13599C54.0195 3.15732 54.0195 3.17866 54.0195 3.19999H51.7955C51.7955 3.17866 51.7955 3.15999 51.7955 3.14399C51.7955 3.12799 51.7955 3.11199 51.7955 3.09599C51.7955 2.86666 51.7209 2.67999 51.5715 2.53599C51.4275 2.38666 51.2382 2.27732 51.0035 2.20799C50.7742 2.13332 50.5342 2.09599 50.2835 2.09599C50.0595 2.09599 49.8275 2.11999 49.5875 2.16799C49.3475 2.21599 49.1449 2.29866 48.9795 2.41599C48.8195 2.53332 48.7395 2.69599 48.7395 2.90399C48.7395 3.10666 48.8222 3.27199 48.9875 3.39999C49.1582 3.52266 49.3955 3.62666 49.6995 3.71199C50.0035 3.79199 50.3555 3.86399 50.7555 3.92799C51.1342 3.99199 51.5209 4.07999 51.9155 4.19199C52.3155 4.29866 52.6835 4.44532 53.0195 4.63199C53.3555 4.81866 53.6275 5.06399 53.8355 5.36799C54.0489 5.67199 54.1555 6.05066 54.1555 6.50399C54.1555 6.97866 54.0462 7.38399 53.8275 7.71999C53.6089 8.05599 53.3129 8.33332 52.9395 8.55199C52.5715 8.76532 52.1555 8.92266 51.6915 9.02399C51.2329 9.13066 50.7582 9.18399 50.2675 9.18399Z"
    fill="white" style="mix-blend-mode:plus-lighter" />
  <path
    d="M56.1948 5.45599V3.90399H62.0108L61.7708 4.31199C61.7708 4.27466 61.7708 4.23732 61.7708 4.19999C61.7708 4.15732 61.7708 4.11999 61.7708 4.08799C61.7708 3.74666 61.6934 3.42399 61.5388 3.11999C61.3841 2.81066 61.1441 2.56266 60.8188 2.37599C60.4988 2.18399 60.0881 2.08799 59.5868 2.08799C59.0961 2.08799 58.6694 2.19199 58.3068 2.39999C57.9441 2.60799 57.6641 2.90932 57.4668 3.30399C57.2748 3.69332 57.1788 4.16532 57.1788 4.71999C57.1788 5.28532 57.2721 5.77066 57.4588 6.17599C57.6508 6.58132 57.9281 6.89332 58.2908 7.11199C58.6588 7.32532 59.1094 7.43199 59.6428 7.43199C60.0001 7.43199 60.3068 7.39999 60.5628 7.33599C60.8241 7.26666 61.0374 7.17866 61.2028 7.07199C61.3681 6.95999 61.4934 6.83999 61.5788 6.71199C61.6641 6.57866 61.7148 6.44799 61.7308 6.31999H63.9628C63.9308 6.67732 63.8108 7.02666 63.6028 7.36799C63.3948 7.70932 63.1041 8.01866 62.7308 8.29599C62.3628 8.56799 61.9121 8.78399 61.3788 8.94399C60.8454 9.10399 60.2401 9.18399 59.5628 9.18399C58.6401 9.18399 57.8321 8.99732 57.1388 8.62399C56.4508 8.25066 55.9148 7.73066 55.5308 7.06399C55.1521 6.39732 54.9628 5.63466 54.9628 4.77599C54.9628 3.89599 55.1574 3.12532 55.5468 2.46399C55.9361 1.79732 56.4774 1.27999 57.1708 0.91199C57.8641 0.538657 58.6614 0.35199 59.5628 0.35199C60.4908 0.35199 61.2934 0.541323 61.9708 0.919991C62.6481 1.29332 63.1681 1.81332 63.5308 2.47999C63.8988 3.14666 64.0828 3.92266 64.0828 4.80799C64.0828 4.93066 64.0801 5.05599 64.0748 5.18399C64.0694 5.30666 64.0614 5.39732 64.0508 5.45599H56.1948Z"
    fill="white" style="mix-blend-mode:plus-lighter" />
</svg>